<svg data-v-0dd9719b="" version="1.0" xmlns="http://www.w3.org/2000/svg" xmlns:xlink="http://www.w3.org/1999/xlink" width="100%" height="100%" viewBox="0 0 340.000000 250.000000" preserveAspectRatio="xMidYMid meet" color-interpolation-filters="sRGB" style="margin: auto;"> <rect data-v-0dd9719b="" x="0" y="0" width="100%" height="100%" fill="#ffffff" fill-opacity="1" class="background"></rect> <rect data-v-0dd9719b="" x="0" y="0" width="100%" height="100%" fill="url(#watermark)" fill-opacity="1" class="watermarklayer"></rect> <g data-v-0dd9719b="" class="iconmbgsvg" transform="translate(66.76000213623047,84.1079216003418)"><g fill="#cd8c2a" hollow-target="text"><g mask="url(#16ee8357-3979-4258-a2ef-61d8b048906a)"><g><rect fill="#cd8c2a" fill-opacity="0" stroke-width="2" x="0" y="0" width="130" height="81.78415274763297" class="image-rect"></rect> <svg x="0" y="0" width="130" height="81.78415274763297" filtersec="colorsb1069914682" class="image-svg-svg primary" style="overflow: visible;"><svg viewBox="1 0 213 134" xmlns="http://www.w3.org/2000/svg"><g fill="none" fill-rule="evenodd"><path d="M39.626 98.28c-4.393-14.629.34-30.82 11.92-46.28-15.561 16.083-22.806 33.651-18.153 49.147C38.956 119.673 60.305 131.171 89 134c-25.46-5.252-43.923-17.568-49.374-35.72" fill="#1c085d"></path><path d="M120.048 19.784l1.165.003c38.399.2 72.271 10.33 92.787 25.734l-.65-.365c-20.898-11.64-50.515-18.91-83.368-18.91l-1.895.009C65.663 26.787 15.37 53.552 15.37 86.492l.004.487c.19 12.651 7.804 24.37 20.657 34.021l-.567-.324C16.817 109.962 5.436 95.695 5.436 80.03c0-33.272 51.314-60.245 114.612-60.245zM15.87 34.577l.48 2.566.037.168a2.38 2.38 0 0 0 1.868 1.734l2.572.478-2.572.478-.168.038a2.379 2.379 0 0 0-1.737 1.863l-.48 2.567-.479-2.567-.038-.168a2.38 2.38 0 0 0-1.867-1.733l-2.572-.478 2.572-.478.168-.038a2.38 2.38 0 0 0 1.737-1.864l.48-2.566zm15.369-18.18l.752 4.028.042.196a3.735 3.735 0 0 0 2.949 2.788l4.037.75-4.037.751-.196.042a3.734 3.734 0 0 0-2.795 2.943l-.752 4.028-.752-4.028-.042-.196a3.736 3.736 0 0 0-2.95-2.789l-4.037-.75 4.037-.75.197-.043a3.734 3.734 0 0 0 2.795-2.942l.752-4.029zm24.8 0l.48 2.566.037.168a2.38 2.38 0 0 0 1.868 1.733l2.572.478-2.572.478-.169.038a2.379 2.379 0 0 0-1.737 1.864l-.479 2.566-.479-2.566-.038-.168a2.38 2.38 0 0 0-1.867-1.734l-2.573-.478 2.573-.478.168-.038a2.38 2.38 0 0 0 1.737-1.863l.48-2.567zM10.914 0l.958 5.133.045.213a4.76 4.76 0 0 0 3.766 3.59l5.144.956-5.144.956-.213.045a4.758 4.758 0 0 0-3.598 3.758l-.958 5.133-.959-5.133-.045-.213a4.76 4.76 0 0 0-3.766-3.59L1 9.892l5.144-.956.213-.045a4.758 4.758 0 0 0 3.598-3.758L10.914 0zm31.312 2.463l.479 2.566.038.168a2.38 2.38 0 0 0 1.868 1.734l2.571.478-2.571.478-.17.038a2.38 2.38 0 0 0-1.736 1.864l-.48 2.566-.479-2.566-.037-.169a2.38 2.38 0 0 0-1.868-1.733l-2.572-.478 2.572-.478.169-.038a2.379 2.379 0 0 0 1.736-1.864l.48-2.566z" fill="#cd8c2a"></path></g></svg></svg> <!----></g></g> <g transform="translate(43.52000427246094,31.278018951416016)"><g data-gra="path-name" fill-rule="" class="tp-name" transform="translate(0,0)"><g transform="scale(1)"><g><path d="M30.1-25.38L19.54-15.21 13.66-15.21 24.22-25.38 30.1-25.38ZM10.43-13.07L31.98-13.07 31.98-11.22 10.43-11.22 10.43 1.85Q10.43 2.11 10.63 2.28 10.82 2.44 11.09 2.38L11.09 2.38 18.05 0.86 18.05 2.87 7.62 5.12Q6.63 5.35 5.92 4.77 5.21 4.19 5.21 3.17L5.21 3.17 5.21-11.22 1.02-11.22 1.02-13.07 5.21-13.07 5.21-25.05 10.43-25.05 10.43-13.07ZM22.34-8.61L28.08 2.57Q28.28 2.97 28.74 3.04L28.74 3.04 31.65 3.33 31.65 5.18 25.08 4.39Q24.35 4.29 23.78 3.89 23.2 3.5 22.87 2.84L22.87 2.84 16.96-8.61 22.34-8.61ZM64.98-7.85L64.98-6.07 61.41-6.73Q62.04-6.17 62.04-5.25L62.04-5.25 62.04 3.14Q62.04 3.99 61.46 4.57 60.89 5.15 60.03 5.15L60.03 5.15 39.01 5.15Q38.15 5.15 37.57 4.57 36.99 3.99 36.99 3.14L36.99 3.14 36.99-5.25Q36.99-6.17 37.62-6.73L37.62-6.73 34.06-6.07 34.06-7.85 36.17-8.25Q36.37-8.32 36.55-8.43 36.73-8.55 36.8-8.71L36.8-8.71 38.31-11.91 34.72-11.91 34.72-13.76 39.2-13.76 40.56-16.6 35.57-16.6 35.57-18.45 41.45-18.45 42.8-21.29 34.98-21.29 34.98-23.13 43.69-23.13 44.75-25.38 49.96-25.38 48.91-23.13 64.09-23.13 64.09-21.29 48.02-21.29 46.7-18.45 63.49-18.45 63.49-16.6 45.8-16.6 44.45-13.76 64.32-13.76 64.32-11.91 60.06-11.91 62.3-8.61Q62.4-8.48 62.53-8.38 62.67-8.28 62.83-8.25L62.83-8.25 64.98-7.85ZM54.81-11.91L43.59-11.91 42.11-8.78Q41.55-7.62 40.33-7.26L40.33-7.26 58.58-7.26Q57.62-7.56 57.06-8.42L57.06-8.42 54.81-11.91ZM56.73-1.98L56.73-4.92Q56.73-5.12 56.58-5.26 56.43-5.41 56.23-5.41L56.23-5.41 42.8-5.41Q42.6-5.41 42.45-5.26 42.31-5.12 42.31-4.92L42.31-4.92 42.31-1.98 56.73-1.98ZM42.8 3.3L56.23 3.3Q56.43 3.3 56.58 3.15 56.73 3 56.73 2.81L56.73 2.81 56.73-0.13 42.31-0.13 42.31 2.81Q42.31 3 42.45 3.15 42.6 3.3 42.8 3.3L42.8 3.3ZM97.98-19.47L85.11-19.47 85.11-14.72 93.85-14.72Q94.71-14.72 95.3-14.12 95.9-13.53 95.9-12.67L95.9-12.67 95.9-0.13Q95.9 0.73 95.3 1.32 94.71 1.91 93.85 1.91L93.85 1.91 87.78 1.91 86.79 0.1 89.96 0.1Q90.29 0.1 90.5-0.12 90.72-0.33 90.72-0.66L90.72-0.66 90.72-12.14Q90.72-12.47 90.5-12.69 90.29-12.9 89.96-12.9L89.96-12.9 85.11-12.9 85.11 5.58 79.89 5.58 79.89-12.9 75.04-12.9Q74.75-12.9 74.53-12.69 74.32-12.47 74.32-12.14L74.32-12.14 74.32 1.91 69.1 1.91 69.1-12.51Q69.1-13.43 69.75-14.07 70.39-14.72 71.31-14.72L71.31-14.72 79.89-14.72 79.89-19.47 67.02-19.47 67.02-21.29 80.29-21.29 79-25.38 84.22-25.38 85.5-21.29 97.98-21.29 97.98-19.47ZM126.56-11.62L104.35-11.62Q103.49-11.62 102.91-12.18 102.33-12.74 102.33-13.63L102.33-13.63 102.33-22.87Q102.33-23.76 102.91-24.32 103.49-24.88 104.35-24.88L104.35-24.88 126.56-24.88Q127.41-24.88 127.99-24.32 128.57-23.76 128.57-22.87L128.57-22.87 128.57-13.63Q128.57-12.74 127.99-12.18 127.41-11.62 126.56-11.62L126.56-11.62ZM107.42-22.54L107.42-13.96Q107.42-13.76 107.56-13.61 107.71-13.46 107.91-13.46L107.91-13.46 122.99-13.46Q123.19-13.46 123.34-13.61 123.49-13.76 123.49-13.96L123.49-13.96 123.49-22.54Q123.49-22.74 123.34-22.89 123.19-23.03 122.99-23.03L122.99-23.03 107.91-23.03Q107.71-23.03 107.56-22.89 107.42-22.74 107.42-22.54L107.42-22.54ZM112.3 5.45L102.17 5.45Q101.31 5.45 100.73 4.87 100.16 4.29 100.16 3.43L100.16 3.43 100.16-7.39Q100.16-8.28 100.73-8.84 101.31-9.41 102.17-9.41L102.17-9.41 112.3-9.41Q113.16-9.41 113.73-8.84 114.31-8.28 114.31-7.39L114.31-7.39 114.31 3.43Q114.31 4.29 113.73 4.87 113.16 5.45 112.3 5.45L112.3 5.45ZM128.83 5.38L118.73 5.38Q117.88 5.38 117.3 4.82 116.72 4.26 116.72 3.37L116.72 3.37 116.72-7.39Q116.72-8.28 117.3-8.84 117.88-9.41 118.73-9.41L118.73-9.41 128.83-9.41Q129.69-9.41 130.27-8.84 130.84-8.28 130.84-7.39L130.84-7.39 130.84 3.37Q130.84 4.26 130.27 4.82 129.69 5.38 128.83 5.38L128.83 5.38ZM104.81-7.06L104.81 3.1Q104.81 3.3 104.96 3.45 105.11 3.6 105.3 3.6L105.3 3.6 109.2 3.6Q109.39 3.6 109.54 3.45 109.69 3.3 109.69 3.1L109.69 3.1 109.69-7.06Q109.69-7.26 109.54-7.41 109.39-7.56 109.2-7.56L109.2-7.56 105.3-7.56Q105.11-7.56 104.96-7.41 104.81-7.26 104.81-7.06L104.81-7.06ZM121.37-7.06L121.37 3.04Q121.37 3.23 121.52 3.38 121.67 3.53 121.87 3.53L121.87 3.53 125.7 3.53Q125.89 3.53 126.04 3.38 126.19 3.23 126.19 3.04L126.19 3.04 126.19-7.06Q126.19-7.26 126.04-7.41 125.89-7.56 125.7-7.56L125.7-7.56 121.87-7.56Q121.67-7.56 121.52-7.41 121.37-7.26 121.37-7.06L121.37-7.06ZM161.14-12.57L163.98-12.24 163.98-10.4 156.91-11.22Q156.45-11.29 156.02-11.43 155.59-11.58 155.2-11.85L155.2-11.85 148.66-15.84 142.59-12.08Q141.74-11.55 140.91-11.45L140.91-11.45 133.02-10.4 133.02-12.24 135.86-12.57Q136.26-12.64 136.52-12.8L136.52-12.8 145.96-19.01Q146.12-19.07 146.19-19.22 146.26-19.37 146.26-19.54L146.26-19.54 146.26-25.38 151.47-25.38 151.47-18.78Q151.47-17.59 150.48-16.96L150.48-16.96 149.89-16.6 153.85-16.6 160.58-12.74Q160.91-12.57 161.14-12.57L161.14-12.57ZM143.72-17.85L138.34-17.85 134.21-24.09 139.59-24.09 143.72-17.85ZM162.79-24.09L158.66-17.85 153.28-17.85 157.41-24.09 162.79-24.09ZM144.01-1.19L146.82 3.2Q146.88 3.33 147.01 3.4 147.15 3.47 147.25 3.5L147.25 3.5 148.17 3.8 148.17 5.64 144.01 4.52Q143.15 4.26 142.56 3.4L142.56 3.4 140.91 0.79 139.46 3.23Q138.86 4.06 138.04 4.32L138.04 4.32 132.96 5.64 132.96 3.8 133.98 3.5Q134.15 3.43 134.28 3.35 134.41 3.27 134.54 3.07L134.54 3.07 138.17-2.41Q138.34-2.67 138.44-2.92 138.53-3.17 138.53-3.47L138.53-3.47 138.53-10.43 142.96-10.43 142.96-3.53Q142.96-2.18 142.16-1.19L142.16-1.19 144.01-1.19ZM159.82-1.19L162.62 3.2Q162.69 3.33 162.82 3.4 162.95 3.47 163.05 3.5L163.05 3.5 163.98 3.8 163.98 5.64 159.82 4.52Q159.42 4.42 159.03 4.14 158.63 3.86 158.37 3.4L158.37 3.4 156.72 0.79 155.26 3.23Q155 3.7 154.62 3.96 154.24 4.22 153.85 4.32L153.85 4.32 148.76 5.64 148.76 3.8 149.79 3.5Q149.95 3.43 150.08 3.35 150.22 3.27 150.35 3.07L150.35 3.07 153.98-2.41Q154.14-2.67 154.24-2.92 154.34-3.17 154.34-3.47L154.34-3.47 154.34-10.43 158.76-10.43 158.76-3.53Q158.76-2.87 158.52-2.31 158.27-1.75 157.91-1.19L157.91-1.19 159.82-1.19ZM137.61-2.64L134.18-2.64 133.39-9.64 136.92-9.64 137.61-2.64ZM143.95-2.64L144.64-9.64 148.17-9.64 147.38-2.64 143.95-2.64ZM153.42-2.64L149.99-2.64 149.19-9.64 152.72-9.64 153.42-2.64ZM159.75-2.64L160.45-9.64 163.98-9.64 163.19-2.64 159.75-2.64Z" transform="translate(-1.0199999809265137, 25.3799991607666)"></path></g> <!----> <!----> <!----> <!----> <!----> <!----> <!----></g></g> <g data-gra="path-slogan" fill-rule="" class="tp-slogan" fill="#1c085d" transform="translate(5,37.01999855041504)"><rect x="0" height="1" y="3.6050000190734863" width="18.609996795654297"></rect> <rect height="1" y="3.6050000190734863" width="14.609996795654297" x="138.34999465942383"></rect> <g transform="translate(21.609996795654297,0)"><g transform="scale(1)"><path d="M7.39-5.54L7.39-5.54L6.36-5.54Q5.97-7.13 4.17-7.18L4.17-7.18Q1.68-7.05 1.59-4.00L1.59-4.00Q1.59-0.73 4.21-0.73L4.21-0.73Q6.02-0.77 6.45-2.92L6.45-2.92L7.48-2.92Q7.00 0.04 4.00 0.13L4.00 0.13Q0.56 0 0.47-3.95L0.47-3.95Q0.64-7.91 4.17-8.08L4.17-8.08Q6.96-7.99 7.39-5.54ZM9.80-4.64L13.92-4.64L13.92-7.86L15.00-7.86L15.00 0L13.92 0L13.92-3.65L9.80-3.65L9.80 0L8.72 0L8.72-7.86L9.80-7.86L9.80-4.64ZM21.83 0L21.05-2.28L17.88-2.28L17.06 0L15.98 0L18.95-7.86L20.15-7.86L22.99 0L21.83 0ZM19.46-6.70L18.22-3.22L20.67-3.22L19.51-6.70L19.46-6.70ZM25.22-7.86L29.18-1.50L29.18-7.86L30.21-7.86L30.21 0L29.00 0L25.01-6.36L24.96-6.36L24.96 0L23.93 0L23.93-7.86L25.22-7.86ZM37.73-3.31L35.32-3.31L35.32-4.21L38.76-4.21L38.76 0L38.07 0L37.81-0.99Q36.91 0.09 35.23 0.13L35.23 0.13Q33.64 0.13 32.79-0.69L32.79-0.69Q31.50-1.89 31.54-4.00L31.54-4.00Q31.84-7.91 35.28-8.08L35.28-8.08Q38.20-7.91 38.63-5.50L38.63-5.50L37.60-5.50Q37.17-7.13 35.23-7.18L35.23-7.18Q32.79-7.00 32.66-3.95L32.66-3.95Q32.66-0.69 35.28-0.69L35.28-0.69Q36.22-0.69 36.91-1.20L36.91-1.20Q37.77-1.89 37.73-3.31L37.73-3.31ZM46.96-5.54L46.96-5.54L45.93-5.54Q45.55-7.13 43.74-7.18L43.74-7.18Q41.25-7.05 41.16-4.00L41.16-4.00Q41.16-0.73 43.79-0.73L43.79-0.73Q45.59-0.77 46.02-2.92L46.02-2.92L47.05-2.92Q46.58 0.04 43.57 0.13L43.57 0.13Q40.13 0 40.05-3.95L40.05-3.95Q40.22-7.91 43.74-8.08L43.74-8.08Q46.54-7.99 46.96-5.54ZM49.37-4.64L53.50-4.64L53.50-7.86L54.57-7.86L54.57 0L53.50 0L53.50-3.65L49.37-3.65L49.37 0L48.30 0L48.30-7.86L49.37-7.86L49.37-4.64ZM61.40-2.92L61.40-7.86L62.48-7.86L62.48-2.79Q62.35 0.04 59.25 0.13L59.25 0.13Q56.38 0.04 56.25-2.62L56.25-2.62L56.25-7.86L57.32-7.86L57.32-2.92Q57.36-0.77 59.30-0.73L59.30-0.73Q61.40-0.77 61.40-2.92L61.40-2.92ZM65.40-7.86L69.35-1.50L69.35-7.86L70.38-7.86L70.38 0L69.18 0L65.18-6.36L65.14-6.36L65.14 0L64.11 0L64.11-7.86L65.40-7.86ZM78.42-7.00L76.27-7.00L76.27-4.25L78.38-4.25Q80.01-4.25 80.01-5.67L80.01-5.67Q80.01-6.96 78.42-7.00L78.42-7.00ZM78.76-3.31L76.27-3.31L76.27 0L75.20 0L75.20-7.86L78.76-7.86Q81.00-7.78 81.08-5.67L81.08-5.67Q80.95-3.39 78.76-3.31L78.76-3.31ZM82.54-7.86L83.62-7.86L83.62 0L82.54 0L82.54-7.86ZM86.71-7.86L90.66-1.50L90.66-7.86L91.70-7.86L91.70 0L90.49 0L86.50-6.36L86.45-6.36L86.45 0L85.42 0L85.42-7.86L86.71-7.86ZM99.69-7.86L96.72-3.18L96.72 0L95.65 0L95.65-3.18L92.68-7.86L93.93-7.86L96.16-4.08L98.44-7.86L99.69-7.86ZM105.83 0L105.06-2.28L101.88-2.28L101.06 0L99.99 0L102.95-7.86L104.16-7.86L106.99 0L105.83 0ZM103.47-6.70L102.22-3.22L104.67-3.22L103.51-6.70L103.47-6.70ZM109.23-7.86L113.18-1.50L113.18-7.86L114.21-7.86L114.21 0L113.01 0L109.01-6.36L108.97-6.36L108.97 0L107.94 0L107.94-7.86L109.23-7.86Z" transform="translate(-0.47265625, 8.078125)"></path></g></g></g></g></g></g><mask id="16ee8357-3979-4258-a2ef-61d8b048906a"><g fill="white"><g><rect fill-opacity="1" stroke-width="2" x="0" y="0" width="130" height="81.78415274763297" class="image-rect"></rect> <svg x="0" y="0" width="130" height="81.78415274763297" filtersec="colorsb1069914682" class="image-svg-svg primary" style="overflow: visible;"><svg viewBox="1 0 213 134" xmlns="http://www.w3.org/2000/svg"><g fill="none" fill-rule="evenodd"><path d="M39.626 98.28c-4.393-14.629.34-30.82 11.92-46.28-15.561 16.083-22.806 33.651-18.153 49.147C38.956 119.673 60.305 131.171 89 134c-25.46-5.252-43.923-17.568-49.374-35.72"></path><path d="M120.048 19.784l1.165.003c38.399.2 72.271 10.33 92.787 25.734l-.65-.365c-20.898-11.64-50.515-18.91-83.368-18.91l-1.895.009C65.663 26.787 15.37 53.552 15.37 86.492l.004.487c.19 12.651 7.804 24.37 20.657 34.021l-.567-.324C16.817 109.962 5.436 95.695 5.436 80.03c0-33.272 51.314-60.245 114.612-60.245zM15.87 34.577l.48 2.566.037.168a2.38 2.38 0 0 0 1.868 1.734l2.572.478-2.572.478-.168.038a2.379 2.379 0 0 0-1.737 1.863l-.48 2.567-.479-2.567-.038-.168a2.38 2.38 0 0 0-1.867-1.733l-2.572-.478 2.572-.478.168-.038a2.38 2.38 0 0 0 1.737-1.864l.48-2.566zm15.369-18.18l.752 4.028.042.196a3.735 3.735 0 0 0 2.949 2.788l4.037.75-4.037.751-.196.042a3.734 3.734 0 0 0-2.795 2.943l-.752 4.028-.752-4.028-.042-.196a3.736 3.736 0 0 0-2.95-2.789l-4.037-.75 4.037-.75.197-.043a3.734 3.734 0 0 0 2.795-2.942l.752-4.029zm24.8 0l.48 2.566.037.168a2.38 2.38 0 0 0 1.868 1.733l2.572.478-2.572.478-.169.038a2.379 2.379 0 0 0-1.737 1.864l-.479 2.566-.479-2.566-.038-.168a2.38 2.38 0 0 0-1.867-1.734l-2.573-.478 2.573-.478.168-.038a2.38 2.38 0 0 0 1.737-1.863l.48-2.567zM10.914 0l.958 5.133.045.213a4.76 4.76 0 0 0 3.766 3.59l5.144.956-5.144.956-.213.045a4.758 4.758 0 0 0-3.598 3.758l-.958 5.133-.959-5.133-.045-.213a4.76 4.76 0 0 0-3.766-3.59L1 9.892l5.144-.956.213-.045a4.758 4.758 0 0 0 3.598-3.758L10.914 0zm31.312 2.463l.479 2.566.038.168a2.38 2.38 0 0 0 1.868 1.734l2.571.478-2.571.478-.17.038a2.38 2.38 0 0 0-1.736 1.864l-.48 2.566-.479-2.566-.037-.169a2.38 2.38 0 0 0-1.868-1.733l-2.572-.478 2.572-.478.169-.038a2.379 2.379 0 0 0 1.736-1.864l.48-2.566z"></path></g></svg></svg> </g></g> <g transform="translate(43.52000427246094,31.278018951416016)" fill="black" stroke="black" stroke-width="6" stroke-linejoin="round"><g data-gra="path-name" fill-rule="" class="tp-name" transform="translate(0,0)"><g transform="scale(1)"><g><path d="M30.1-25.38L19.54-15.21 13.66-15.21 24.22-25.38 30.1-25.38ZM10.43-13.07L31.98-13.07 31.98-11.22 10.43-11.22 10.43 1.85Q10.43 2.11 10.63 2.28 10.82 2.44 11.09 2.38L11.09 2.38 18.05 0.86 18.05 2.87 7.62 5.12Q6.63 5.35 5.92 4.77 5.21 4.19 5.21 3.17L5.21 3.17 5.21-11.22 1.02-11.22 1.02-13.07 5.21-13.07 5.21-25.05 10.43-25.05 10.43-13.07ZM22.34-8.61L28.08 2.57Q28.28 2.97 28.74 3.04L28.74 3.04 31.65 3.33 31.65 5.18 25.08 4.39Q24.35 4.29 23.78 3.89 23.2 3.5 22.87 2.84L22.87 2.84 16.96-8.61 22.34-8.61ZM64.98-7.85L64.98-6.07 61.41-6.73Q62.04-6.17 62.04-5.25L62.04-5.25 62.04 3.14Q62.04 3.99 61.46 4.57 60.89 5.15 60.03 5.15L60.03 5.15 39.01 5.15Q38.15 5.15 37.57 4.57 36.99 3.99 36.99 3.14L36.99 3.14 36.99-5.25Q36.99-6.17 37.62-6.73L37.62-6.73 34.06-6.07 34.06-7.85 36.17-8.25Q36.37-8.32 36.55-8.43 36.73-8.55 36.8-8.71L36.8-8.71 38.31-11.91 34.72-11.91 34.72-13.76 39.2-13.76 40.56-16.6 35.57-16.6 35.57-18.45 41.45-18.45 42.8-21.29 34.98-21.29 34.98-23.13 43.69-23.13 44.75-25.38 49.96-25.38 48.91-23.13 64.09-23.13 64.09-21.29 48.02-21.29 46.7-18.45 63.49-18.45 63.49-16.6 45.8-16.6 44.45-13.76 64.32-13.76 64.32-11.91 60.06-11.91 62.3-8.61Q62.4-8.48 62.53-8.38 62.67-8.28 62.83-8.25L62.83-8.25 64.98-7.85ZM54.81-11.91L43.59-11.91 42.11-8.78Q41.55-7.62 40.33-7.26L40.33-7.26 58.58-7.26Q57.62-7.56 57.06-8.42L57.06-8.42 54.81-11.91ZM56.73-1.98L56.73-4.92Q56.73-5.12 56.58-5.26 56.43-5.41 56.23-5.41L56.23-5.41 42.8-5.41Q42.6-5.41 42.45-5.26 42.31-5.12 42.31-4.92L42.31-4.92 42.31-1.98 56.73-1.98ZM42.8 3.3L56.23 3.3Q56.43 3.3 56.58 3.15 56.73 3 56.73 2.81L56.73 2.81 56.73-0.13 42.31-0.13 42.31 2.81Q42.31 3 42.45 3.15 42.6 3.3 42.8 3.3L42.8 3.3ZM97.98-19.47L85.11-19.47 85.11-14.72 93.85-14.72Q94.71-14.72 95.3-14.12 95.9-13.53 95.9-12.67L95.9-12.67 95.9-0.13Q95.9 0.73 95.3 1.32 94.71 1.91 93.85 1.91L93.85 1.91 87.78 1.91 86.79 0.1 89.96 0.1Q90.29 0.1 90.5-0.12 90.72-0.33 90.72-0.66L90.72-0.66 90.72-12.14Q90.72-12.47 90.5-12.69 90.29-12.9 89.96-12.9L89.96-12.9 85.11-12.9 85.11 5.58 79.89 5.58 79.89-12.9 75.04-12.9Q74.75-12.9 74.53-12.69 74.32-12.47 74.32-12.14L74.32-12.14 74.32 1.91 69.1 1.91 69.1-12.51Q69.1-13.43 69.75-14.07 70.39-14.72 71.31-14.72L71.31-14.72 79.89-14.72 79.89-19.47 67.02-19.47 67.02-21.29 80.29-21.29 79-25.38 84.22-25.38 85.5-21.29 97.98-21.29 97.98-19.47ZM126.56-11.62L104.35-11.62Q103.49-11.62 102.91-12.18 102.33-12.74 102.33-13.63L102.33-13.63 102.33-22.87Q102.33-23.76 102.91-24.32 103.49-24.88 104.35-24.88L104.35-24.88 126.56-24.88Q127.41-24.88 127.99-24.32 128.57-23.76 128.57-22.87L128.57-22.87 128.57-13.63Q128.57-12.74 127.99-12.18 127.41-11.62 126.56-11.62L126.56-11.62ZM107.42-22.54L107.42-13.96Q107.42-13.76 107.56-13.61 107.71-13.46 107.91-13.46L107.91-13.46 122.99-13.46Q123.19-13.46 123.34-13.61 123.49-13.76 123.49-13.96L123.49-13.96 123.49-22.54Q123.49-22.74 123.34-22.89 123.19-23.03 122.99-23.03L122.99-23.03 107.91-23.03Q107.71-23.03 107.56-22.89 107.42-22.74 107.42-22.54L107.42-22.54ZM112.3 5.45L102.17 5.45Q101.31 5.45 100.73 4.87 100.16 4.29 100.16 3.43L100.16 3.43 100.16-7.39Q100.16-8.28 100.73-8.84 101.31-9.41 102.17-9.41L102.17-9.41 112.3-9.41Q113.16-9.41 113.73-8.84 114.31-8.28 114.31-7.39L114.31-7.39 114.31 3.43Q114.31 4.29 113.73 4.87 113.16 5.45 112.3 5.45L112.3 5.45ZM128.83 5.38L118.73 5.38Q117.88 5.38 117.3 4.82 116.72 4.26 116.72 3.37L116.72 3.37 116.72-7.39Q116.72-8.28 117.3-8.84 117.88-9.41 118.73-9.41L118.73-9.41 128.83-9.41Q129.69-9.41 130.27-8.84 130.84-8.28 130.84-7.39L130.84-7.39 130.84 3.37Q130.84 4.26 130.27 4.82 129.69 5.38 128.83 5.38L128.83 5.38ZM104.81-7.06L104.81 3.1Q104.81 3.3 104.96 3.45 105.11 3.6 105.3 3.6L105.3 3.6 109.2 3.6Q109.39 3.6 109.54 3.45 109.69 3.3 109.69 3.1L109.69 3.1 109.69-7.06Q109.69-7.26 109.54-7.41 109.39-7.56 109.2-7.56L109.2-7.56 105.3-7.56Q105.11-7.56 104.96-7.41 104.81-7.26 104.81-7.06L104.81-7.06ZM121.37-7.06L121.37 3.04Q121.37 3.23 121.52 3.38 121.67 3.53 121.87 3.53L121.87 3.53 125.7 3.53Q125.89 3.53 126.04 3.38 126.19 3.23 126.19 3.04L126.19 3.04 126.19-7.06Q126.19-7.26 126.04-7.41 125.89-7.56 125.7-7.56L125.7-7.56 121.87-7.56Q121.67-7.56 121.52-7.41 121.37-7.26 121.37-7.06L121.37-7.06ZM161.14-12.57L163.98-12.24 163.98-10.4 156.91-11.22Q156.45-11.29 156.02-11.43 155.59-11.58 155.2-11.85L155.2-11.85 148.66-15.84 142.59-12.08Q141.74-11.55 140.91-11.45L140.91-11.45 133.02-10.4 133.02-12.24 135.86-12.57Q136.26-12.64 136.52-12.8L136.52-12.8 145.96-19.01Q146.12-19.07 146.19-19.22 146.26-19.37 146.26-19.54L146.26-19.54 146.26-25.38 151.47-25.38 151.47-18.78Q151.47-17.59 150.48-16.96L150.48-16.96 149.89-16.6 153.85-16.6 160.58-12.74Q160.91-12.57 161.14-12.57L161.14-12.57ZM143.72-17.85L138.34-17.85 134.21-24.09 139.59-24.09 143.72-17.85ZM162.79-24.09L158.66-17.85 153.28-17.85 157.41-24.09 162.79-24.09ZM144.01-1.19L146.82 3.2Q146.88 3.33 147.01 3.4 147.15 3.47 147.25 3.5L147.25 3.5 148.17 3.8 148.17 5.64 144.01 4.52Q143.15 4.26 142.56 3.4L142.56 3.4 140.91 0.79 139.46 3.23Q138.86 4.06 138.04 4.32L138.04 4.32 132.96 5.64 132.96 3.8 133.98 3.5Q134.15 3.43 134.28 3.35 134.41 3.27 134.54 3.07L134.54 3.07 138.17-2.41Q138.34-2.67 138.44-2.92 138.53-3.17 138.53-3.47L138.53-3.47 138.53-10.43 142.96-10.43 142.96-3.53Q142.96-2.18 142.16-1.19L142.16-1.19 144.01-1.19ZM159.82-1.19L162.62 3.2Q162.69 3.33 162.82 3.4 162.95 3.47 163.05 3.5L163.05 3.5 163.98 3.8 163.98 5.64 159.82 4.52Q159.42 4.42 159.03 4.14 158.63 3.86 158.37 3.4L158.37 3.4 156.72 0.79 155.26 3.23Q155 3.7 154.62 3.96 154.24 4.22 153.85 4.32L153.85 4.32 148.76 5.64 148.76 3.8 149.79 3.5Q149.95 3.43 150.08 3.35 150.22 3.27 150.35 3.07L150.35 3.07 153.98-2.41Q154.14-2.67 154.24-2.92 154.34-3.17 154.34-3.47L154.34-3.47 154.34-10.43 158.76-10.43 158.76-3.53Q158.76-2.87 158.52-2.31 158.27-1.75 157.91-1.19L157.91-1.19 159.82-1.19ZM137.61-2.64L134.18-2.64 133.39-9.64 136.92-9.64 137.61-2.64ZM143.95-2.64L144.64-9.64 148.17-9.64 147.38-2.64 143.95-2.64ZM153.42-2.64L149.99-2.64 149.19-9.64 152.72-9.64 153.42-2.64ZM159.75-2.64L160.45-9.64 163.98-9.64 163.19-2.64 159.75-2.64Z" transform="translate(-1.0199999809265137, 25.3799991607666)"></path></g>       </g></g> <g data-gra="path-slogan" fill-rule="" class="tp-slogan" transform="translate(5,37.01999855041504)"><rect x="0" height="1" y="3.6050000190734863" width="18.609996795654297"></rect> <rect height="1" y="3.6050000190734863" width="14.609996795654297" x="138.34999465942383"></rect> <g transform="translate(21.609996795654297,0)"><g transform="scale(1)"><path d="M7.39-5.54L7.39-5.54L6.36-5.54Q5.97-7.13 4.17-7.18L4.17-7.18Q1.68-7.05 1.59-4.00L1.59-4.00Q1.59-0.73 4.21-0.73L4.21-0.73Q6.02-0.77 6.45-2.92L6.45-2.92L7.48-2.92Q7.00 0.04 4.00 0.13L4.00 0.13Q0.56 0 0.47-3.95L0.47-3.95Q0.64-7.91 4.17-8.08L4.17-8.08Q6.96-7.99 7.39-5.54ZM9.80-4.64L13.92-4.64L13.92-7.86L15.00-7.86L15.00 0L13.92 0L13.92-3.65L9.80-3.65L9.80 0L8.72 0L8.72-7.86L9.80-7.86L9.80-4.64ZM21.83 0L21.05-2.28L17.88-2.28L17.06 0L15.98 0L18.95-7.86L20.15-7.86L22.99 0L21.83 0ZM19.46-6.70L18.22-3.22L20.67-3.22L19.51-6.70L19.46-6.70ZM25.22-7.86L29.18-1.50L29.18-7.86L30.21-7.86L30.21 0L29.00 0L25.01-6.36L24.96-6.36L24.96 0L23.93 0L23.93-7.86L25.22-7.86ZM37.73-3.31L35.32-3.31L35.32-4.21L38.76-4.21L38.76 0L38.07 0L37.81-0.99Q36.91 0.09 35.23 0.13L35.23 0.13Q33.64 0.13 32.79-0.69L32.79-0.69Q31.50-1.89 31.54-4.00L31.54-4.00Q31.84-7.91 35.28-8.08L35.28-8.08Q38.20-7.91 38.63-5.50L38.63-5.50L37.60-5.50Q37.17-7.13 35.23-7.18L35.23-7.18Q32.79-7.00 32.66-3.95L32.66-3.95Q32.66-0.69 35.28-0.69L35.28-0.69Q36.22-0.69 36.91-1.20L36.91-1.20Q37.77-1.89 37.73-3.31L37.73-3.31ZM46.96-5.54L46.96-5.54L45.93-5.54Q45.55-7.13 43.74-7.18L43.74-7.18Q41.25-7.05 41.16-4.00L41.16-4.00Q41.16-0.73 43.79-0.73L43.79-0.73Q45.59-0.77 46.02-2.92L46.02-2.92L47.05-2.92Q46.58 0.04 43.57 0.13L43.57 0.13Q40.13 0 40.05-3.95L40.05-3.95Q40.22-7.91 43.74-8.08L43.74-8.08Q46.54-7.99 46.96-5.54ZM49.37-4.64L53.50-4.64L53.50-7.86L54.57-7.86L54.57 0L53.50 0L53.50-3.65L49.37-3.65L49.37 0L48.30 0L48.30-7.86L49.37-7.86L49.37-4.64ZM61.40-2.92L61.40-7.86L62.48-7.86L62.48-2.79Q62.35 0.04 59.25 0.13L59.25 0.13Q56.38 0.04 56.25-2.62L56.25-2.62L56.25-7.86L57.32-7.86L57.32-2.92Q57.36-0.77 59.30-0.73L59.30-0.73Q61.40-0.77 61.40-2.92L61.40-2.92ZM65.40-7.86L69.35-1.50L69.35-7.86L70.38-7.86L70.38 0L69.18 0L65.18-6.36L65.14-6.36L65.14 0L64.11 0L64.11-7.86L65.40-7.86ZM78.42-7.00L76.27-7.00L76.27-4.25L78.38-4.25Q80.01-4.25 80.01-5.67L80.01-5.67Q80.01-6.96 78.42-7.00L78.42-7.00ZM78.76-3.31L76.27-3.31L76.27 0L75.20 0L75.20-7.86L78.76-7.86Q81.00-7.78 81.08-5.67L81.08-5.67Q80.95-3.39 78.76-3.31L78.76-3.31ZM82.54-7.86L83.62-7.86L83.62 0L82.54 0L82.54-7.86ZM86.71-7.86L90.66-1.50L90.66-7.86L91.70-7.86L91.70 0L90.49 0L86.50-6.36L86.45-6.36L86.45 0L85.42 0L85.42-7.86L86.71-7.86ZM99.69-7.86L96.72-3.18L96.72 0L95.65 0L95.65-3.18L92.68-7.86L93.93-7.86L96.16-4.08L98.44-7.86L99.69-7.86ZM105.83 0L105.06-2.28L101.88-2.28L101.06 0L99.99 0L102.95-7.86L104.16-7.86L106.99 0L105.83 0ZM103.47-6.70L102.22-3.22L104.67-3.22L103.51-6.70L103.47-6.70ZM109.23-7.86L113.18-1.50L113.18-7.86L114.21-7.86L114.21 0L113.01 0L109.01-6.36L108.97-6.36L108.97 0L107.94 0L107.94-7.86L109.23-7.86Z" transform="translate(-0.47265625, 8.078125)"></path></g></g></g></g></mask><defs v-gra="od"></defs></svg>